<mxfile host="app.diagrams.net" modified="2023-07-14T01:44:19.424Z" agent="Mozilla/5.0 (Windows NT 10.0; Win64; x64) AppleWebKit/537.36 (KHTML, like Gecko) Chrome/114.0.0.0 Safari/537.36" etag="dMejmUkjoH9vVAisAGRO" version="21.6.2" type="device">
  <diagram name="Page-1" id="HbUFPzHRWxl-eESFbfk5">
    <mxGraphModel dx="1034" dy="508" grid="1" gridSize="10" guides="1" tooltips="1" connect="1" arrows="1" fold="1" page="1" pageScale="1" pageWidth="850" pageHeight="1100" math="0" shadow="0">
      <root>
        <mxCell id="0" />
        <mxCell id="1" parent="0" />
        <mxCell id="F4y55MRj25B69qbfCT7H-8" value="Administrator&lt;br&gt;" style="shape=umlActor;verticalLabelPosition=bottom;verticalAlign=top;html=1;" parent="1" vertex="1">
          <mxGeometry x="419" y="18" width="30" height="40" as="geometry" />
        </mxCell>
        <mxCell id="F4y55MRj25B69qbfCT7H-12" value="" style="ellipse;html=1;shape=startState;fillColor=#000000;strokeColor=#ff0000;" parent="1" vertex="1">
          <mxGeometry x="349" y="33" width="30" height="30" as="geometry" />
        </mxCell>
        <mxCell id="F4y55MRj25B69qbfCT7H-13" value="" style="edgeStyle=orthogonalEdgeStyle;html=1;verticalAlign=bottom;endArrow=open;endSize=8;strokeColor=#ff0000;rounded=0;" parent="1" edge="1">
          <mxGeometry relative="1" as="geometry">
            <mxPoint x="364" y="109" as="targetPoint" />
            <mxPoint x="364" y="59" as="sourcePoint" />
          </mxGeometry>
        </mxCell>
        <mxCell id="F4y55MRj25B69qbfCT7H-15" value="Input Email / pwd&lt;br style=&quot;border-color: var(--border-color);&quot;&gt;login&amp;nbsp;" style="rounded=1;whiteSpace=wrap;html=1;arcSize=40;fontColor=#000000;fillColor=#ffffc0;strokeColor=#ff0000;" parent="1" vertex="1">
          <mxGeometry x="304" y="109" width="125" height="70" as="geometry" />
        </mxCell>
        <mxCell id="F4y55MRj25B69qbfCT7H-16" value="" style="edgeStyle=orthogonalEdgeStyle;html=1;verticalAlign=bottom;endArrow=open;endSize=8;strokeColor=#ff0000;rounded=0;" parent="1" edge="1">
          <mxGeometry relative="1" as="geometry">
            <mxPoint x="365" y="240" as="targetPoint" />
            <mxPoint x="364.5" y="179" as="sourcePoint" />
          </mxGeometry>
        </mxCell>
        <mxCell id="F4y55MRj25B69qbfCT7H-20" value="Check user exists?" style="rhombus;whiteSpace=wrap;html=1;fontColor=#000000;fillColor=#ffffc0;strokeColor=#ff0000;" parent="1" vertex="1">
          <mxGeometry x="280" y="240" width="170" height="60" as="geometry" />
        </mxCell>
        <mxCell id="F4y55MRj25B69qbfCT7H-21" value="no" style="edgeStyle=orthogonalEdgeStyle;html=1;align=left;verticalAlign=bottom;endArrow=open;endSize=8;strokeColor=#ff0000;rounded=0;" parent="1" source="F4y55MRj25B69qbfCT7H-20" edge="1">
          <mxGeometry x="-1" relative="1" as="geometry">
            <mxPoint x="510" y="270" as="targetPoint" />
          </mxGeometry>
        </mxCell>
        <mxCell id="F4y55MRj25B69qbfCT7H-22" value="yes" style="edgeStyle=orthogonalEdgeStyle;html=1;align=left;verticalAlign=top;endArrow=open;endSize=8;strokeColor=#ff0000;rounded=0;" parent="1" source="F4y55MRj25B69qbfCT7H-20" edge="1">
          <mxGeometry x="-1" relative="1" as="geometry">
            <mxPoint x="366" y="340" as="targetPoint" />
            <Array as="points">
              <mxPoint x="365" y="340" />
            </Array>
          </mxGeometry>
        </mxCell>
        <mxCell id="F4y55MRj25B69qbfCT7H-24" value="Store user into DB" style="rounded=1;whiteSpace=wrap;html=1;arcSize=40;fontColor=#000000;fillColor=#ffffc0;strokeColor=#ff0000;" parent="1" vertex="1">
          <mxGeometry x="510" y="240" width="120" height="50" as="geometry" />
        </mxCell>
        <mxCell id="F4y55MRj25B69qbfCT7H-25" value="" style="edgeStyle=orthogonalEdgeStyle;html=1;verticalAlign=bottom;endArrow=open;endSize=8;strokeColor=#ff0000;rounded=0;exitX=1;exitY=0.5;exitDx=0;exitDy=0;entryX=1;entryY=0.5;entryDx=0;entryDy=0;" parent="1" source="F4y55MRj25B69qbfCT7H-24" target="F4y55MRj25B69qbfCT7H-15" edge="1">
          <mxGeometry relative="1" as="geometry">
            <mxPoint x="660" y="140" as="targetPoint" />
            <Array as="points">
              <mxPoint x="660" y="265" />
              <mxPoint x="660" y="144" />
            </Array>
          </mxGeometry>
        </mxCell>
        <mxCell id="F4y55MRj25B69qbfCT7H-26" value="" style="shape=line;html=1;strokeWidth=6;strokeColor=#ff0000;" parent="1" vertex="1">
          <mxGeometry x="240" y="340" width="310" height="10" as="geometry" />
        </mxCell>
        <mxCell id="F4y55MRj25B69qbfCT7H-29" value="" style="edgeStyle=orthogonalEdgeStyle;html=1;verticalAlign=bottom;endArrow=open;endSize=8;strokeColor=#ff0000;rounded=0;" parent="1" edge="1">
          <mxGeometry relative="1" as="geometry">
            <mxPoint x="395" y="409" as="targetPoint" />
            <mxPoint x="394.5" y="348" as="sourcePoint" />
          </mxGeometry>
        </mxCell>
        <mxCell id="F4y55MRj25B69qbfCT7H-30" value="" style="edgeStyle=orthogonalEdgeStyle;html=1;verticalAlign=bottom;endArrow=open;endSize=8;strokeColor=#ff0000;rounded=0;" parent="1" edge="1">
          <mxGeometry relative="1" as="geometry">
            <mxPoint x="549" y="409" as="targetPoint" />
            <mxPoint x="548.5" y="348" as="sourcePoint" />
          </mxGeometry>
        </mxCell>
        <mxCell id="F4y55MRj25B69qbfCT7H-31" value="" style="edgeStyle=orthogonalEdgeStyle;html=1;verticalAlign=bottom;endArrow=open;endSize=8;strokeColor=#ff0000;rounded=0;" parent="1" edge="1">
          <mxGeometry relative="1" as="geometry">
            <mxPoint x="241" y="409" as="targetPoint" />
            <mxPoint x="240.5" y="348" as="sourcePoint" />
          </mxGeometry>
        </mxCell>
        <mxCell id="F4y55MRj25B69qbfCT7H-33" value="Print / Save results" style="rounded=1;whiteSpace=wrap;html=1;arcSize=40;fontColor=#000000;fillColor=#ffffc0;strokeColor=#ff0000;" parent="1" vertex="1">
          <mxGeometry x="180" y="508" width="120" height="40" as="geometry" />
        </mxCell>
        <mxCell id="F4y55MRj25B69qbfCT7H-34" value="" style="edgeStyle=orthogonalEdgeStyle;html=1;verticalAlign=bottom;endArrow=open;endSize=8;strokeColor=#ff0000;rounded=0;" parent="1" source="F4y55MRj25B69qbfCT7H-33" edge="1">
          <mxGeometry relative="1" as="geometry">
            <mxPoint x="240" y="608" as="targetPoint" />
          </mxGeometry>
        </mxCell>
        <mxCell id="F4y55MRj25B69qbfCT7H-35" value="View analysis/reports" style="rounded=1;whiteSpace=wrap;html=1;arcSize=40;fontColor=#000000;fillColor=#ffffc0;strokeColor=#ff0000;" parent="1" vertex="1">
          <mxGeometry x="182" y="410" width="120" height="40" as="geometry" />
        </mxCell>
        <mxCell id="F4y55MRj25B69qbfCT7H-36" value="" style="edgeStyle=orthogonalEdgeStyle;html=1;verticalAlign=bottom;endArrow=open;endSize=8;strokeColor=#ff0000;rounded=0;" parent="1" source="F4y55MRj25B69qbfCT7H-35" edge="1">
          <mxGeometry relative="1" as="geometry">
            <mxPoint x="242" y="510" as="targetPoint" />
            <Array as="points">
              <mxPoint x="242" y="490" />
              <mxPoint x="243" y="490" />
            </Array>
          </mxGeometry>
        </mxCell>
        <mxCell id="F4y55MRj25B69qbfCT7H-37" value="Add/Edit poll questions" style="rounded=1;whiteSpace=wrap;html=1;arcSize=40;fontColor=#000000;fillColor=#ffffc0;strokeColor=#ff0000;" parent="1" vertex="1">
          <mxGeometry x="497" y="410" width="120" height="40" as="geometry" />
        </mxCell>
        <mxCell id="F4y55MRj25B69qbfCT7H-39" value="Maintain profile" style="rounded=1;whiteSpace=wrap;html=1;arcSize=40;fontColor=#000000;fillColor=#ffffc0;strokeColor=#ff0000;" parent="1" vertex="1">
          <mxGeometry x="336" y="409" width="120" height="51" as="geometry" />
        </mxCell>
        <mxCell id="F4y55MRj25B69qbfCT7H-48" value="" style="edgeStyle=orthogonalEdgeStyle;html=1;verticalAlign=bottom;endArrow=open;endSize=8;strokeColor=#ff0000;rounded=0;" parent="1" edge="1">
          <mxGeometry relative="1" as="geometry">
            <mxPoint x="552" y="602" as="targetPoint" />
            <mxPoint x="551.5" y="453" as="sourcePoint" />
            <Array as="points">
              <mxPoint x="552" y="482" />
              <mxPoint x="552" y="482" />
            </Array>
          </mxGeometry>
        </mxCell>
        <mxCell id="F4y55MRj25B69qbfCT7H-49" value="" style="edgeStyle=orthogonalEdgeStyle;html=1;verticalAlign=bottom;endArrow=open;endSize=8;strokeColor=#ff0000;rounded=0;entryX=0.5;entryY=0.8;entryDx=0;entryDy=0;entryPerimeter=0;" parent="1" edge="1">
          <mxGeometry relative="1" as="geometry">
            <mxPoint x="400" y="609" as="targetPoint" />
            <mxPoint x="400" y="460" as="sourcePoint" />
            <Array as="points">
              <mxPoint x="400" y="500" />
              <mxPoint x="401" y="500" />
            </Array>
          </mxGeometry>
        </mxCell>
        <mxCell id="F4y55MRj25B69qbfCT7H-50" value="" style="shape=line;html=1;strokeWidth=6;strokeColor=#ff0000;" parent="1" vertex="1">
          <mxGeometry x="240" y="602" width="320" height="10" as="geometry" />
        </mxCell>
        <mxCell id="F4y55MRj25B69qbfCT7H-51" value="" style="edgeStyle=orthogonalEdgeStyle;html=1;verticalAlign=bottom;endArrow=open;endSize=8;strokeColor=#ff0000;rounded=0;" parent="1" edge="1">
          <mxGeometry relative="1" as="geometry">
            <mxPoint x="399" y="664" as="targetPoint" />
            <mxPoint x="398.5" y="603" as="sourcePoint" />
          </mxGeometry>
        </mxCell>
        <mxCell id="F4y55MRj25B69qbfCT7H-52" value="" style="ellipse;html=1;shape=endState;fillColor=#000000;strokeColor=#ff0000;" parent="1" vertex="1">
          <mxGeometry x="384" y="661" width="30" height="30" as="geometry" />
        </mxCell>
        <mxCell id="F4y55MRj25B69qbfCT7H-53" value="" style="edgeStyle=orthogonalEdgeStyle;html=1;verticalAlign=bottom;endArrow=open;endSize=8;strokeColor=#ff0000;rounded=0;" parent="1" edge="1">
          <mxGeometry relative="1" as="geometry">
            <mxPoint x="620" y="430" as="targetPoint" />
            <mxPoint x="550" y="520" as="sourcePoint" />
            <Array as="points">
              <mxPoint x="632" y="520" />
              <mxPoint x="662" y="520" />
              <mxPoint x="662" y="428" />
            </Array>
          </mxGeometry>
        </mxCell>
      </root>
    </mxGraphModel>
  </diagram>
</mxfile>
